<svg width="18" height="20" viewBox="0 0 18 20" fill="none" xmlns="http://www.w3.org/2000/svg">
<path fill-rule="evenodd" clip-rule="evenodd" d="M13.0695 20V16.1536H16.1466C16.5547 16.1536 16.9461 15.9914 17.2346 15.7029C17.523 15.4143 17.6852 15.023 17.6852 14.6149V8.46061C17.6849 6.95668 17.2838 5.48002 16.5233 4.1826C15.7628 2.88518 14.6701 1.8139 13.358 1.07903C12.0458 0.344162 10.5615 -0.0277379 9.05789 0.001612C7.55427 0.0309634 6.08562 0.460505 4.80314 1.24602C3.52067 2.03153 2.47072 3.14464 1.76134 4.47074C1.05198 5.79686 0.708845 7.28806 0.767249 8.79084C0.825669 10.2936 1.28352 11.7537 2.09367 13.0207C2.90383 14.2878 4.03702 15.316 5.3766 15.9997V20H13.0695ZM4.70584 10.326C3.90969 8.09737 4.79274 5.54965 6.91522 4.32424C9.01067 3.11442 11.6183 3.59526 13.1586 5.34351C13.5487 5.78635 13.458 6.44747 13.0201 6.84309C11.3669 8.33628 8.64584 10.2515 5.97329 10.9594C5.44509 11.0994 4.88967 10.8406 4.70584 10.326Z" fill="#F8F3EE"/>
</svg>
