<svg width="19" height="20" viewBox="0 0 19 20" fill="none" xmlns="http://www.w3.org/2000/svg">
<path d="M7.09545 2.69231L7.75699 0.984615C7.86856 0.695483 8.06485 0.446786 8.32014 0.271095C8.57545 0.0954062 8.87785 0.000915385 9.18776 0H10.4493C10.7592 0.000915385 11.0616 0.0954062 11.3169 0.271095C11.5722 0.446786 11.7685 0.695483 11.8801 0.984615L12.5416 2.69231L14.7877 3.98462L16.6031 3.70769C16.9054 3.66666 17.2131 3.71642 17.4871 3.85065C17.7609 3.98488 17.9888 4.19751 18.1415 4.46154L18.7569 5.53846C18.9146 5.80669 18.9874 6.11643 18.9654 6.4268C18.9434 6.73717 18.8278 7.03359 18.6338 7.27692L17.5108 8.70769V11.2923L18.6646 12.7231C18.8586 12.9664 18.9742 13.2628 18.9962 13.5732C19.0182 13.8836 18.9454 14.1933 18.7877 14.4615L18.1723 15.5385C18.0195 15.8025 17.7917 16.0151 17.5178 16.1494C17.2438 16.2835 16.9362 16.3334 16.6338 16.2923L14.8185 16.0154L12.5724 17.3077L11.9108 19.0154C11.7993 19.3045 11.603 19.5532 11.3477 19.7289C11.0924 19.9046 10.79 19.9991 10.4801 20H9.18776C8.87785 19.9991 8.57545 19.9046 8.32014 19.7289C8.06485 19.5532 7.86856 19.3045 7.75699 19.0154L7.09545 17.3077L4.8493 16.0154L3.03391 16.2923C2.73163 16.3334 2.42397 16.2835 2.15003 16.1494C1.87611 16.0151 1.64826 15.8025 1.49545 15.5385L0.880064 14.4615C0.722372 14.1933 0.649726 13.8836 0.671695 13.5732C0.693664 13.2628 0.809234 12.9664 1.00314 12.7231L2.12622 11.2923V8.70769L0.972372 7.27692C0.778464 7.03359 0.662895 6.73717 0.640926 6.4268C0.618957 6.11643 0.691603 5.80669 0.849295 5.53846L1.46468 4.46154C1.6175 4.19751 1.84534 3.98488 2.11926 3.85065C2.3932 3.71642 2.70086 3.66666 3.00314 3.70769L4.81853 3.98462L7.09545 2.69231ZM6.7416 10C6.7416 10.6086 6.92206 11.2034 7.26016 11.7094C7.59826 12.2154 8.0788 12.6098 8.64103 12.8427C9.20328 13.0756 9.82194 13.1365 10.4188 13.0178C11.0157 12.8991 11.5639 12.606 11.9942 12.1757C12.4246 11.7454 12.7176 11.1971 12.8363 10.6003C12.955 10.0034 12.8941 9.38475 12.6612 8.82251C12.4284 8.26028 12.034 7.77972 11.528 7.44163C11.022 7.10354 10.4271 6.92308 9.81853 6.92308C9.00248 6.92308 8.21985 7.24725 7.64282 7.82429C7.06579 8.40132 6.7416 9.18395 6.7416 10Z" fill="#F8F3EE"/>
</svg>
